#N canvas 58 0 1858 1029 10;
#X obj 37 -10881 + 1;
#X obj -16 -10606 dac~;
#X obj -8 -11009 bng 15 250 50 0 empty empty empty 17 7 0 10 -262144
-1 -1;
#X msg -78 -11006 \; pd dsp 1;
#X obj 20 -10979 tgl 15 0 empty empty empty 17 7 0 10 -262144 -1 -1
0 1;
#X obj 48 -11009 bng 15 250 50 0 empty empty empty 17 7 0 10 -262144
-1 -1;
#X msg 98 -11006 \; pd dsp 0;
#X obj -258 -11140 bng 15 250 50 0 empty empty empty 17 7 0 10 -262144
-1 -1;
#X msg -104 -11096 \; notes2 read mario2.txt;
#X obj -194 -10813 tabread notes1;
#X obj 140 -10814 tabread notes2;
#X msg 50 -11096 \; notes3 read mario3.txt;
#N canvas 0 0 450 300 (subpatch) 0;
#X array notes1 2500 float 2;
#X coords 0 1500 2500 0 200 140 1 0 0;
#X restore -258 -11378 graph;
#N canvas 0 0 450 300 (subpatch) 0;
#X array notes2 2500 float 2;
#X coords 0 1500 2500 0 200 140 1 0 0;
#X restore -48 -11378 graph;
#N canvas 0 0 450 300 (subpatch) 0;
#X array notes3 2500 float 2;
#X coords 0 1500 2500 0 200 140 1 0 0;
#X restore 162 -11378 graph;
#X obj -96 -10813 tabread notes3;
#X obj -137 -10669 *~ 0.5;
#X obj 100 -10670 *~ 0.5;
#X obj -8 -10881 int 0;
#X obj -8 -10854 % 2500;
#N canvas 168 57 885 883 fmdrum1 0;
#X msg 409 152 0 \$1;
#X floatatom 395 124 5 0 0 0 - - -;
#X obj 157 462 *~;
#X obj 393 234 *~;
#X obj 144 337 *~;
#X floatatom 173 272 5 0 0 0 - - -;
#X obj 141 431 osc~;
#X obj 135 371 +~;
#X floatatom 37 246 5 0 0 0 - - -;
#X msg 464 159 1;
#X obj 233 408 *~;
#X obj 405 -65 inlet;
#X obj 106 139 hsl 128 8 0 127 0 1 empty empty p-amt 2 4 0 8 -262144
-1 -1 5200 1;
#X obj 173 247 mtof;
#X obj 106 150 hsl 128 8 0 127 0 1 empty empty pitch 2 4 0 8 -262144
-1 -1 1700 1;
#X obj 37 219 mtof;
#X obj 106 127 hsl 128 8 1.27 800 1 1 empty empty p-dec 2 4 0 8 -262144
-1 -1 6500 1;
#X obj 258 217 * 2;
#X obj 261 242 - 1;
#X obj 166 302 *;
#X msg 196 221 bang;
#X obj 134 407 +~;
#X obj 107 163 hsl 128 8 0 1 0 1 empty empty fm-mod 2 4 0 8 -225271
-1 -1 12700 1;
#X obj 450 495 *~;
#X obj 107 174 hsl 128 8 0 1 0 1 empty empty fm-send 2 4 0 8 -225271
-1 -1 12400 1;
#X obj 335 603 *~;
#X obj 239 117 vsl 8 80 0 1 0 1 empty empty l 2 8 0 8 -262144 -1 -1
7900 1;
#X obj 200 647 *~;
#X obj 507 610 *~;
#X text 600 703 <- to rm bus;
#X text 414 702 <- to fm bus;
#X text 529 468 <-fm in;
#X obj 190 513 *~;
#X text 596 541 <-rm in;
#X obj 107 187 hsl 128 8 0 1 0 1 empty empty rm-mod 2 4 0 8 -261689
-1 -1 8500 1;
#X obj 107 198 hsl 128 8 0 1 0 1 empty empty rm-send 2 4 0 8 -261689
-1 -1 0 1;
#X text 330 254 quadratic pitch/amp env;
#X obj 144 561 +~;
#X obj 122 532 *~;
#X obj 173 536 *~;
#X obj 99 483 -;
#X msg 65 420 1;
#X obj 231 104 hradio 8 1 1 2 empty empty pol -18 4 0 8 -262144 -1
-1 0;
#X msg 528 174 0 \$1;
#X floatatom 528 146 5 0 0 0 - - -;
#X obj 519 248 *~;
#X msg 588 162 1;
#X obj 482 87 +;
#X msg 491 12 0;
#X text 529 272 amp env;
#X obj 106 115 hsl 128 8 1.27 800 1 1 empty empty decay 2 4 0 8 -262144
-1 -1 6200 1;
#X obj 443 440 * 8000;
#X obj 480 468 inlet~;
#X obj 549 539 inlet~;
#X obj 200 709 outlet~;
#X obj 355 699 outlet~;
#X obj 538 702 outlet~;
#X obj 416 204 vline~;
#X obj 541 216 vline~;
#X obj 392 20 t f b b;
#X obj 530 75 t b b;
#X obj 314 57 moses 0.001;
#X connect 0 0 57 0;
#X connect 1 0 0 0;
#X connect 2 0 32 0;
#X connect 2 0 38 1;
#X connect 3 0 4 0;
#X connect 4 0 7 1;
#X connect 5 0 19 0;
#X connect 6 0 2 0;
#X connect 7 0 21 0;
#X connect 8 0 7 0;
#X connect 9 0 57 0;
#X connect 10 0 2 1;
#X connect 11 0 48 0;
#X connect 11 0 59 0;
#X connect 11 0 60 0;
#X connect 12 0 13 0;
#X connect 13 0 5 0;
#X connect 14 0 15 0;
#X connect 15 0 8 0;
#X connect 16 0 1 0;
#X connect 17 0 18 0;
#X connect 18 0 19 1;
#X connect 18 0 20 0;
#X connect 19 0 4 1;
#X connect 20 0 5 0;
#X connect 21 0 6 0;
#X connect 22 0 51 0;
#X connect 23 0 21 1;
#X connect 24 0 25 1;
#X connect 25 0 55 0;
#X connect 26 0 27 1;
#X connect 27 0 54 0;
#X connect 28 0 56 0;
#X connect 32 0 39 1;
#X connect 34 0 39 0;
#X connect 34 0 40 1;
#X connect 34 0 41 0;
#X connect 35 0 28 1;
#X connect 37 0 27 0;
#X connect 37 0 25 0;
#X connect 37 0 28 0;
#X connect 38 0 37 0;
#X connect 39 0 37 1;
#X connect 40 0 38 0;
#X connect 41 0 40 0;
#X connect 42 0 17 0;
#X connect 43 0 58 0;
#X connect 44 0 43 0;
#X connect 45 0 10 1;
#X connect 46 0 58 0;
#X connect 47 0 44 0;
#X connect 48 0 47 0;
#X connect 50 0 47 1;
#X connect 51 0 23 1;
#X connect 52 0 23 0;
#X connect 53 0 32 1;
#X connect 57 0 3 1;
#X connect 57 0 3 0;
#X connect 58 0 45 1;
#X connect 58 0 45 0;
#X connect 59 0 61 0;
#X connect 59 1 1 0;
#X connect 59 2 9 0;
#X connect 60 0 44 0;
#X connect 60 1 46 0;
#X connect 61 1 10 0;
#X coords 0 -1 1 1 150 110 1 100 100;
#X restore 306 -10793 pd fmdrum1;
#X obj 306 -10926 % 2;
#X obj 350 -10953 + 1;
#X obj 306 -10953 int 0;
#X obj 306 -10899 moses 1;
#X obj 306 -10872 bng 15 250 50 0 empty empty empty 17 7 0 10 -262144
-1 -1;
#X obj 345 -10872 bng 15 250 50 0 empty empty empty 17 7 0 10 -262144
-1 -1;
#X obj 306 -11005 tgl 15 0 empty empty empty 17 7 0 10 -262144 -1 -1
0 1;
#N canvas 168 57 885 883 fmdrum1 0;
#X msg 409 152 0 \$1;
#X floatatom 395 124 5 0 0 0 - - -;
#X obj 157 462 *~;
#X obj 393 234 *~;
#X obj 144 337 *~;
#X floatatom 173 272 5 0 0 0 - - -;
#X obj 141 431 osc~;
#X obj 135 371 +~;
#X floatatom 37 246 5 0 0 0 - - -;
#X msg 464 159 1;
#X obj 233 408 *~;
#X obj 405 -65 inlet;
#X obj 106 139 hsl 128 8 0 127 0 1 empty empty p-amt 2 4 0 8 -262144
-1 -1 8100 1;
#X obj 173 247 mtof;
#X obj 106 150 hsl 128 8 0 127 0 1 empty empty pitch 2 4 0 8 -262144
-1 -1 8400 1;
#X obj 37 219 mtof;
#X obj 106 127 hsl 128 8 1.27 800 1 1 empty empty p-dec 2 4 0 8 -262144
-1 -1 7300 1;
#X obj 258 217 * 2;
#X obj 261 242 - 1;
#X obj 166 302 *;
#X msg 196 221 bang;
#X obj 134 407 +~;
#X obj 107 163 hsl 128 8 0 1 0 1 empty empty fm-mod 2 4 0 8 -225271
-1 -1 11100 1;
#X obj 450 495 *~;
#X obj 107 174 hsl 128 8 0 1 0 1 empty empty fm-send 2 4 0 8 -225271
-1 -1 8900 1;
#X obj 335 603 *~;
#X obj 239 117 vsl 8 80 0 1 0 1 empty empty l 2 8 0 8 -262144 -1 -1
7900 1;
#X obj 200 647 *~;
#X obj 507 610 *~;
#X text 600 703 <- to rm bus;
#X text 414 702 <- to fm bus;
#X text 529 468 <-fm in;
#X obj 190 513 *~;
#X text 596 541 <-rm in;
#X obj 107 187 hsl 128 8 0 1 0 1 empty empty rm-mod 2 4 0 8 -261689
-1 -1 8500 1;
#X obj 107 198 hsl 128 8 0 1 0 1 empty empty rm-send 2 4 0 8 -261689
-1 -1 0 1;
#X text 330 254 quadratic pitch/amp env;
#X obj 144 561 +~;
#X obj 122 532 *~;
#X obj 173 536 *~;
#X obj 99 483 -;
#X msg 65 420 1;
#X obj 231 104 hradio 8 1 1 2 empty empty pol -18 4 0 8 -262144 -1
-1 0;
#X msg 528 174 0 \$1;
#X floatatom 528 146 5 0 0 0 - - -;
#X obj 519 248 *~;
#X msg 588 162 1;
#X obj 482 87 +;
#X msg 491 12 0;
#X text 529 272 amp env;
#X obj 106 115 hsl 128 8 1.27 800 1 1 empty empty decay 2 4 0 8 -262144
-1 -1 4300 1;
#X obj 443 440 * 8000;
#X obj 480 468 inlet~;
#X obj 549 539 inlet~;
#X obj 200 709 outlet~;
#X obj 355 699 outlet~;
#X obj 538 702 outlet~;
#X obj 416 204 vline~;
#X obj 541 216 vline~;
#X obj 392 20 t f b b;
#X obj 530 75 t b b;
#X obj 314 57 moses 0.001;
#X connect 0 0 57 0;
#X connect 1 0 0 0;
#X connect 2 0 32 0;
#X connect 2 0 38 1;
#X connect 3 0 4 0;
#X connect 4 0 7 1;
#X connect 5 0 19 0;
#X connect 6 0 2 0;
#X connect 7 0 21 0;
#X connect 8 0 7 0;
#X connect 9 0 57 0;
#X connect 10 0 2 1;
#X connect 11 0 48 0;
#X connect 11 0 59 0;
#X connect 11 0 60 0;
#X connect 12 0 13 0;
#X connect 13 0 5 0;
#X connect 14 0 15 0;
#X connect 15 0 8 0;
#X connect 16 0 1 0;
#X connect 17 0 18 0;
#X connect 18 0 19 1;
#X connect 18 0 20 0;
#X connect 19 0 4 1;
#X connect 20 0 5 0;
#X connect 21 0 6 0;
#X connect 22 0 51 0;
#X connect 23 0 21 1;
#X connect 24 0 25 1;
#X connect 25 0 55 0;
#X connect 26 0 27 1;
#X connect 27 0 54 0;
#X connect 28 0 56 0;
#X connect 32 0 39 1;
#X connect 34 0 39 0;
#X connect 34 0 40 1;
#X connect 34 0 41 0;
#X connect 35 0 28 1;
#X connect 37 0 27 0;
#X connect 37 0 25 0;
#X connect 37 0 28 0;
#X connect 38 0 37 0;
#X connect 39 0 37 1;
#X connect 40 0 38 0;
#X connect 41 0 40 0;
#X connect 42 0 17 0;
#X connect 43 0 58 0;
#X connect 44 0 43 0;
#X connect 45 0 10 1;
#X connect 46 0 58 0;
#X connect 47 0 44 0;
#X connect 48 0 47 0;
#X connect 50 0 47 1;
#X connect 51 0 23 1;
#X connect 52 0 23 0;
#X connect 53 0 32 1;
#X connect 57 0 3 1;
#X connect 57 0 3 0;
#X connect 58 0 45 1;
#X connect 58 0 45 0;
#X connect 59 0 61 0;
#X connect 59 1 1 0;
#X connect 59 2 9 0;
#X connect 60 0 44 0;
#X connect 60 1 46 0;
#X connect 61 1 10 0;
#X coords 0 -1 1 1 150 110 1 100 100;
#X restore 476 -10793 pd fmdrum1;
#X obj -8 -10936 int 0;
#X obj -98 -11443 / 4;
#X obj 20 -10908 metro;
#X obj 1 -11443 * 3;
#X obj 306 -10980 metro;
#X floatatom -219 -11459 5 50 250 0 Metrum - -;
#X msg 306 -10839 10;
#X msg 345 -10839 10;
#X obj 476 -10673 s~ drum_right;
#X obj 306 -10673 s~ drum_left;
#X obj 8 -10726 r~ drum_right;
#X obj -87 -10726 r~ drum_left;
#X obj 1 -11416 s metro_drum;
#X obj 47 -10936 r metro_melody;
#X obj 362 -11005 r metro_drum;
#X obj -258 -11569 bng 15 250 50 0 empty empty Noten_einlesen 17 7
0 10 -262144 -1 -1;
#X obj -258 -11535 s read_song;
#X obj -98 -11416 s metro_melody;
#X obj 32 -10814 tabread notes4;
#X obj -38 -10759 *~ 0.5;
#N canvas 0 0 450 300 (subpatch) 0;
#X array notes4 2500 float 2;
#X coords 0 1500 2500 0 200 140 1 0 0;
#X restore 372 -11378 graph;
#X msg 204 -11096 \; notes4 read mario4.txt;
#X obj -21 -10699 *~ 0.5;
#X obj -138 -11569 bng 15 250 50 0 empty empty Start 17 7 0 10 -262144
-1 -1;
#X obj -18 -11569 bng 15 250 50 0 empty empty Stop 17 7 0 10 -262144
-1 -1;
#X obj -138 -11535 s start;
#X obj -18 -11535 s stop;
#X obj -8 -11036 r start;
#X obj 48 -11036 r stop;
#X obj -137 -10726 *~ 0.5;
#X obj 100 -10727 *~ 0.5;
#X obj 306 -11032 r start;
#X obj 362 -11032 r stop;
#X msg -258 -11096 \; notes1 read mario1.txt;
#X obj -258 -11167 r read_song;
#X obj -98 -11503 r read_song;
#X msg -98 -11476 200;
#X obj -194 -10786 note;
#X obj -96 -10786 note;
#X obj 32 -10787 note;
#X obj 140 -10787 note;
#X connect 0 0 18 1;
#X connect 2 0 3 0;
#X connect 2 0 4 0;
#X connect 2 0 29 0;
#X connect 4 0 31 0;
#X connect 5 0 4 0;
#X connect 5 0 6 0;
#X connect 7 0 62 0;
#X connect 7 0 8 0;
#X connect 7 0 11 0;
#X connect 7 0 50 0;
#X connect 9 0 66 0;
#X connect 10 0 69 0;
#X connect 15 0 67 0;
#X connect 16 0 1 0;
#X connect 17 0 1 1;
#X connect 18 0 0 0;
#X connect 18 0 19 0;
#X connect 19 0 9 0;
#X connect 19 0 10 0;
#X connect 19 0 15 0;
#X connect 19 0 47 0;
#X connect 20 0 38 0;
#X connect 21 0 24 0;
#X connect 22 0 23 1;
#X connect 23 0 22 0;
#X connect 23 0 21 0;
#X connect 24 0 25 0;
#X connect 24 1 26 0;
#X connect 25 0 35 0;
#X connect 26 0 36 0;
#X connect 27 0 33 0;
#X connect 28 0 37 0;
#X connect 29 0 18 0;
#X connect 30 0 46 0;
#X connect 31 0 18 0;
#X connect 32 0 41 0;
#X connect 33 0 23 0;
#X connect 34 0 30 0;
#X connect 34 0 32 0;
#X connect 35 0 20 0;
#X connect 36 0 28 0;
#X connect 39 0 51 0;
#X connect 40 0 51 0;
#X connect 42 0 31 1;
#X connect 43 0 33 1;
#X connect 44 0 45 0;
#X connect 47 0 68 0;
#X connect 48 0 58 0;
#X connect 48 0 59 0;
#X connect 51 0 16 0;
#X connect 51 0 17 0;
#X connect 52 0 54 0;
#X connect 53 0 55 0;
#X connect 56 0 2 0;
#X connect 57 0 5 0;
#X connect 58 0 16 0;
#X connect 59 0 17 0;
#X connect 60 0 27 0;
#X connect 61 0 27 0;
#X connect 63 0 7 0;
#X connect 64 0 65 0;
#X connect 65 0 34 0;
#X connect 66 0 58 0;
#X connect 67 0 48 0;
#X connect 68 0 48 0;
#X connect 69 0 59 0;
