#N canvas 879 402 450 554 10;
#X obj 90 10 inlet;
#X obj 47 495 outlet~;
#X obj 234 237 bng 15 250 50 0 empty empty empty 17 7 0 10 -262144
-1 -1;
#X obj 46 406 *~ 0.5;
#X obj 47 449 *~;
#X obj 98 435 vline~;
#X msg 160 383 1 100;
#X obj 50 261 osc~;
#X obj 94 245 osc~;
#X obj 143 234 osc~;
#X obj 126 49 * 2;
#X obj 172 65 * 3;
#X obj 146 283 *~ 0.1;
#X obj 88 301 *~ 0.3;
#X connect 0 0 2 0;
#X connect 0 0 7 0;
#X connect 0 0 10 0;
#X connect 0 0 11 0;
#X connect 2 0 6 0;
#X connect 3 0 4 0;
#X connect 4 0 1 0;
#X connect 5 0 4 1;
#X connect 6 0 5 0;
#X connect 7 0 3 0;
#X connect 8 0 13 0;
#X connect 9 0 12 0;
#X connect 10 0 8 0;
#X connect 11 0 9 0;
#X connect 12 0 3 0;
#X connect 13 0 3 0;
