#N canvas 1049 198 560 426 10;
#X obj 78 116 dac~;
#X obj 11 174 s android;
#X obj 11 151 r test;
#X obj 78 -54 r roll_angle;
#X obj 78 57 osc~;
#X obj 78 29 + 300;
#X obj 80 85 *~;
#X obj 321 47 r pitch_angle;
#X obj 78 -10 * 2;
#X obj 320 82 / 90;
#X connect 2 0 1 0;
#X connect 3 0 8 0;
#X connect 4 0 6 0;
#X connect 5 0 4 0;
#X connect 6 0 0 0;
#X connect 6 0 0 1;
#X connect 7 0 9 0;
#X connect 8 0 5 0;
#X connect 9 0 6 1;
